<svg width="205" height="126" viewBox="0 0 205 126" fill="none" xmlns="http://www.w3.org/2000/svg">
<path fill-rule="evenodd" clip-rule="evenodd" d="M3.56104 53.7414C7.98341 51.3504 12.8573 49.605 18.0778 48.6549C44.3882 43.8665 69.5408 61.09 74.2578 87.1247C76.116 97.3812 74.5255 107.475 70.3064 116.236C88.1718 106.576 98.669 86.3807 94.8879 65.5118C90.171 39.4771 65.0184 22.2535 38.708 27.0419C22.7627 29.9439 10.0516 40.2647 3.56104 53.7414Z" fill="white"/>
<ellipse cx="62.6967" cy="11.2221" rx="10.8943" ry="11.2221" fill="white"/>
<path d="M102.91 70L104.728 59.0909H107.605L107.292 61.0156H107.413C107.745 60.3764 108.206 59.8722 108.798 59.5028C109.395 59.1335 110.065 58.9489 110.808 58.9489C111.547 58.9489 112.148 59.1359 112.612 59.5099C113.081 59.8793 113.351 60.3812 113.422 61.0156H113.535C113.857 60.3906 114.343 59.8911 114.991 59.517C115.64 59.1383 116.364 58.9489 117.165 58.9489C118.173 58.9489 118.945 59.2732 119.48 59.9219C120.015 60.5705 120.183 61.4844 119.984 62.6634L118.763 70H115.737L116.873 63.2599C116.963 62.6491 116.873 62.1946 116.603 61.8963C116.334 61.5933 115.957 61.4418 115.474 61.4418C114.925 61.4418 114.468 61.617 114.103 61.9673C113.739 62.313 113.514 62.7699 113.429 63.3381L112.3 70H109.366L110.517 63.196C110.597 62.6562 110.51 62.2301 110.254 61.9176C110.003 61.6004 109.627 61.4418 109.125 61.4418C108.793 61.4418 108.478 61.527 108.18 61.6974C107.887 61.8632 107.638 62.0975 107.434 62.4006C107.231 62.6989 107.098 63.0492 107.037 63.4517L105.929 70H102.91ZM126.074 70.2131C124.962 70.2131 124.041 69.9763 123.312 69.5028C122.582 69.0246 122.069 68.3617 121.77 67.5142C121.477 66.6619 121.422 65.67 121.607 64.5384C121.787 63.4209 122.161 62.4432 122.729 61.6051C123.297 60.767 124.019 60.116 124.895 59.652C125.771 59.1832 126.759 58.9489 127.857 58.9489C128.965 58.9489 129.884 59.188 130.613 59.6662C131.342 60.1397 131.856 60.8026 132.154 61.6548C132.452 62.5071 132.509 63.4991 132.324 64.6307C132.14 65.7434 131.761 66.7188 131.188 67.5568C130.615 68.3949 129.893 69.0483 129.022 69.517C128.151 69.9811 127.168 70.2131 126.074 70.2131ZM126.373 67.8693C126.884 67.8693 127.336 67.7249 127.729 67.4361C128.127 67.1425 128.456 66.7448 128.716 66.2429C128.982 65.7363 129.166 65.1634 129.27 64.5241C129.375 63.8944 129.382 63.3357 129.292 62.848C129.202 62.3556 129.012 61.9673 128.724 61.6832C128.439 61.3991 128.049 61.2571 127.552 61.2571C127.04 61.2571 126.586 61.4039 126.188 61.6974C125.79 61.9863 125.461 62.384 125.201 62.8906C124.94 63.3973 124.758 63.9725 124.654 64.6165C124.554 65.2415 124.547 65.8002 124.633 66.2926C124.718 66.7803 124.905 67.1662 125.194 67.4503C125.483 67.7296 125.875 67.8693 126.373 67.8693ZM138.34 70.2131C137.227 70.2131 136.306 69.9763 135.577 69.5028C134.848 69.0246 134.334 68.3617 134.036 67.5142C133.742 66.6619 133.688 65.67 133.873 64.5384C134.053 63.4209 134.427 62.4432 134.995 61.6051C135.563 60.767 136.285 60.116 137.161 59.652C138.037 59.1832 139.024 58.9489 140.123 58.9489C141.231 58.9489 142.149 59.188 142.878 59.6662C143.608 60.1397 144.121 60.8026 144.42 61.6548C144.718 62.5071 144.775 63.4991 144.59 64.6307C144.405 65.7434 144.027 66.7188 143.454 67.5568C142.881 68.3949 142.159 69.0483 141.287 69.517C140.416 69.9811 139.434 70.2131 138.34 70.2131ZM138.638 67.8693C139.15 67.8693 139.602 67.7249 139.995 67.4361C140.393 67.1425 140.722 66.7448 140.982 66.2429C141.247 65.7363 141.432 65.1634 141.536 64.5241C141.64 63.8944 141.647 63.3357 141.557 62.848C141.467 62.3556 141.278 61.9673 140.989 61.6832C140.705 61.3991 140.314 61.2571 139.817 61.2571C139.306 61.2571 138.851 61.4039 138.454 61.6974C138.056 61.9863 137.727 62.384 137.466 62.8906C137.206 63.3973 137.024 63.9725 136.92 64.6165C136.82 65.2415 136.813 65.8002 136.898 66.2926C136.983 66.7803 137.17 67.1662 137.459 67.4503C137.748 67.7296 138.141 67.8693 138.638 67.8693ZM149.753 63.6932L148.702 70H145.684L147.502 59.0909H150.378L150.066 61.0156H150.187C150.532 60.3764 151.02 59.8722 151.65 59.5028C152.284 59.1335 153.006 58.9489 153.816 58.9489C154.573 58.9489 155.206 59.1146 155.712 59.446C156.224 59.7775 156.583 60.2486 156.792 60.8594C157.005 61.4702 157.04 62.2017 156.898 63.054L155.733 70H152.708L153.78 63.5938C153.889 62.9261 153.804 62.4053 153.525 62.0312C153.25 61.6525 152.807 61.4631 152.197 61.4631C151.789 61.4631 151.415 61.5507 151.074 61.7259C150.733 61.901 150.447 62.1567 150.215 62.4929C149.988 62.8243 149.834 63.2244 149.753 63.6932ZM160.256 70L159.105 59.0909H162.166L162.635 66.4205H162.735L165.717 59.0909H168.722L169.29 66.3778H169.382L172.266 59.0909H175.32L170.54 70H167.337L166.598 63.1392H166.463L163.452 70H160.256ZM178.198 70.206C177.507 70.206 176.908 70.0852 176.401 69.8438C175.899 69.5975 175.53 69.233 175.293 68.75C175.056 68.267 174.997 67.6681 175.116 66.9531C175.22 66.3471 175.416 65.8404 175.705 65.4332C175.999 65.0213 176.356 64.6899 176.777 64.4389C177.199 64.188 177.665 63.9962 178.177 63.8636C178.693 63.7311 179.225 63.6411 179.775 63.5938C180.409 63.5275 180.925 63.4635 181.323 63.402C181.725 63.3404 182.026 63.2528 182.225 63.1392C182.424 63.0208 182.545 62.8456 182.587 62.6136V62.571C182.658 62.1259 182.575 61.7803 182.339 61.5341C182.107 61.2831 181.735 61.1577 181.224 61.1577C180.684 61.1577 180.224 61.276 179.846 61.5128C179.472 61.7495 179.204 62.0502 179.043 62.4148L176.287 62.1875C176.534 61.5246 176.905 60.9517 177.402 60.4688C177.904 59.9811 178.508 59.607 179.214 59.3466C179.919 59.0814 180.71 58.9489 181.586 58.9489C182.192 58.9489 182.758 59.0199 183.283 59.1619C183.813 59.304 184.27 59.5241 184.654 59.8224C185.042 60.1207 185.322 60.5043 185.492 60.973C185.667 61.437 185.703 61.9934 185.599 62.642L184.37 70H181.5L181.756 68.4872H181.671C181.439 68.8281 181.155 69.1288 180.819 69.3892C180.483 69.6449 180.097 69.8461 179.661 69.9929C179.225 70.1349 178.738 70.206 178.198 70.206ZM179.412 68.1179C179.853 68.1179 180.258 68.0303 180.627 67.8551C181.001 67.6752 181.309 67.4337 181.55 67.1307C181.796 66.8277 181.953 66.4844 182.019 66.1009L182.204 64.9432C182.109 65.0047 181.972 65.0592 181.792 65.1065C181.617 65.1539 181.425 65.1989 181.216 65.2415C181.013 65.2794 180.807 65.3149 180.599 65.348C180.39 65.3764 180.203 65.4048 180.037 65.4332C179.673 65.4853 179.346 65.5682 179.057 65.6818C178.768 65.7955 178.534 65.9493 178.354 66.1435C178.174 66.3329 178.063 66.5696 178.02 66.8537C177.954 67.2656 178.051 67.5805 178.312 67.7983C178.577 68.0114 178.944 68.1179 179.412 68.1179ZM192.157 55.4545L189.743 70H186.717L189.132 55.4545H192.157ZM195.426 66.8608L196.03 63.2315H196.47L200.668 59.0909H204.141L198.544 64.5739H197.82L195.426 66.8608ZM192.166 70L194.581 55.4545H197.607L195.192 70H192.166ZM198.985 70L196.57 65.2486L198.935 63.1108L202.529 70H198.985Z" fill="white"/>
<path d="M104.905 72.4545V79H103.543V72.4545H104.905ZM108.233 79.0959C107.728 79.0959 107.293 78.9936 106.929 78.7891C106.566 78.5824 106.287 78.2905 106.091 77.9134C105.895 77.5341 105.797 77.0856 105.797 76.5678C105.797 76.0629 105.895 75.6197 106.091 75.2383C106.287 74.8569 106.563 74.5597 106.919 74.3466C107.277 74.1335 107.697 74.027 108.178 74.027C108.502 74.027 108.804 74.0792 109.083 74.1836C109.364 74.2859 109.609 74.4403 109.818 74.647C110.029 74.8537 110.193 75.1136 110.31 75.4268C110.427 75.7379 110.486 76.1023 110.486 76.5199V76.8938H106.341V76.0501H109.204C109.204 75.854 109.162 75.6804 109.076 75.5291C108.991 75.3778 108.873 75.2596 108.722 75.1744C108.573 75.087 108.399 75.0433 108.201 75.0433C107.994 75.0433 107.811 75.0913 107.651 75.1871C107.493 75.2809 107.37 75.4077 107.28 75.5675C107.191 75.7251 107.145 75.9009 107.143 76.0948V76.897C107.143 77.1399 107.188 77.3498 107.277 77.5266C107.369 77.7035 107.498 77.8398 107.664 77.9357C107.83 78.0316 108.027 78.0795 108.255 78.0795C108.406 78.0795 108.545 78.0582 108.671 78.0156C108.796 77.973 108.904 77.9091 108.993 77.8239C109.083 77.7386 109.151 77.6342 109.198 77.5107L110.457 77.5938C110.393 77.8963 110.262 78.1605 110.064 78.3864C109.868 78.6101 109.614 78.7848 109.303 78.9105C108.994 79.0341 108.638 79.0959 108.233 79.0959ZM112.774 79.0927C112.461 79.0927 112.182 79.0384 111.937 78.9297C111.692 78.8189 111.498 78.6559 111.355 78.4407C111.215 78.2234 111.144 77.9528 111.144 77.6289C111.144 77.3562 111.194 77.1271 111.294 76.9418C111.395 76.7564 111.531 76.6072 111.704 76.4943C111.876 76.3814 112.072 76.2962 112.292 76.2386C112.513 76.1811 112.745 76.1406 112.988 76.1172C113.274 76.0874 113.504 76.0597 113.679 76.0341C113.853 76.0064 113.98 75.9659 114.059 75.9126C114.138 75.8594 114.177 75.7805 114.177 75.6761V75.657C114.177 75.4545 114.113 75.2979 113.986 75.1871C113.86 75.0763 113.681 75.021 113.449 75.021C113.204 75.021 113.009 75.0753 112.864 75.1839C112.719 75.2905 112.623 75.4247 112.576 75.5866L111.317 75.4844C111.381 75.1861 111.506 74.9283 111.694 74.7109C111.881 74.4915 112.123 74.3232 112.419 74.206C112.718 74.0866 113.063 74.027 113.455 74.027C113.728 74.027 113.989 74.0589 114.238 74.1229C114.489 74.1868 114.712 74.2859 114.906 74.4201C115.102 74.5543 115.256 74.7269 115.369 74.9379C115.482 75.1467 115.539 75.397 115.539 75.6889V79H114.248V78.3192H114.209C114.13 78.4727 114.025 78.608 113.893 78.7251C113.761 78.8402 113.602 78.9308 113.417 78.9968C113.231 79.0607 113.017 79.0927 112.774 79.0927ZM113.164 78.1531C113.364 78.1531 113.541 78.1136 113.695 78.0348C113.848 77.9538 113.968 77.8452 114.056 77.7088C114.143 77.5724 114.187 77.418 114.187 77.2454V76.7244C114.144 76.7521 114.086 76.7777 114.011 76.8011C113.939 76.8224 113.857 76.8427 113.765 76.8619C113.673 76.8789 113.582 76.8949 113.49 76.9098C113.399 76.9226 113.315 76.9343 113.241 76.945C113.081 76.9684 112.941 77.0057 112.822 77.0568C112.703 77.108 112.61 77.1772 112.544 77.2646C112.478 77.3498 112.445 77.4563 112.445 77.5842C112.445 77.7695 112.512 77.9112 112.646 78.0092C112.783 78.1051 112.955 78.1531 113.164 78.1531ZM116.595 79V74.0909H117.915V74.9474H117.966C118.056 74.6428 118.206 74.4126 118.417 74.2571C118.628 74.0994 118.871 74.0206 119.146 74.0206C119.214 74.0206 119.287 74.0249 119.366 74.0334C119.445 74.0419 119.514 74.0536 119.574 74.0685V75.2766C119.51 75.2575 119.421 75.2404 119.309 75.2255C119.196 75.2106 119.092 75.2031 118.998 75.2031C118.798 75.2031 118.619 75.2468 118.462 75.3342C118.306 75.4194 118.182 75.5387 118.091 75.6921C118.001 75.8455 117.957 76.0224 117.957 76.2227V79H116.595ZM121.639 76.1619V79H120.278V74.0909H121.575V74.957H121.633C121.741 74.6715 121.924 74.4457 122.179 74.2795C122.435 74.1112 122.745 74.027 123.109 74.027C123.45 74.027 123.748 74.1016 124.001 74.2507C124.255 74.3999 124.452 74.6129 124.592 74.8899C124.733 75.1648 124.803 75.4929 124.803 75.8743V79H123.442V76.1172C123.444 75.8168 123.367 75.5824 123.212 75.4141C123.056 75.2436 122.842 75.1584 122.569 75.1584C122.386 75.1584 122.224 75.1978 122.083 75.2766C121.945 75.3555 121.836 75.4705 121.757 75.6218C121.681 75.771 121.641 75.951 121.639 76.1619ZM129.359 79.0927C129.046 79.0927 128.767 79.0384 128.522 78.9297C128.277 78.8189 128.083 78.6559 127.94 78.4407C127.8 78.2234 127.729 77.9528 127.729 77.6289C127.729 77.3562 127.779 77.1271 127.879 76.9418C127.98 76.7564 128.116 76.6072 128.289 76.4943C128.461 76.3814 128.657 76.2962 128.877 76.2386C129.098 76.1811 129.33 76.1406 129.573 76.1172C129.859 76.0874 130.089 76.0597 130.264 76.0341C130.438 76.0064 130.565 75.9659 130.644 75.9126C130.723 75.8594 130.762 75.7805 130.762 75.6761V75.657C130.762 75.4545 130.698 75.2979 130.57 75.1871C130.445 75.0763 130.266 75.021 130.034 75.021C129.789 75.021 129.594 75.0753 129.449 75.1839C129.304 75.2905 129.208 75.4247 129.161 75.5866L127.902 75.4844C127.966 75.1861 128.091 74.9283 128.279 74.7109C128.466 74.4915 128.708 74.3232 129.004 74.206C129.303 74.0866 129.648 74.027 130.04 74.027C130.313 74.027 130.574 74.0589 130.823 74.1229C131.074 74.1868 131.297 74.2859 131.491 74.4201C131.687 74.5543 131.841 74.7269 131.954 74.9379C132.067 75.1467 132.124 75.397 132.124 75.6889V79H130.833V78.3192H130.794C130.715 78.4727 130.61 78.608 130.478 78.7251C130.346 78.8402 130.187 78.9308 130.002 78.9968C129.816 79.0607 129.602 79.0927 129.359 79.0927ZM129.749 78.1531C129.949 78.1531 130.126 78.1136 130.28 78.0348C130.433 77.9538 130.553 77.8452 130.641 77.7088C130.728 77.5724 130.772 77.418 130.772 77.2454V76.7244C130.729 76.7521 130.671 76.7777 130.596 76.8011C130.524 76.8224 130.442 76.8427 130.35 76.8619C130.258 76.8789 130.167 76.8949 130.075 76.9098C129.983 76.9226 129.9 76.9343 129.826 76.945C129.666 76.9684 129.526 77.0057 129.407 77.0568C129.288 77.108 129.195 77.1772 129.129 77.2646C129.063 77.3498 129.03 77.4563 129.03 77.5842C129.03 77.7695 129.097 77.9112 129.231 78.0092C129.368 78.1051 129.54 78.1531 129.749 78.1531ZM134.542 76.1619V79H133.18V74.0909H134.478V74.957H134.535C134.644 74.6715 134.826 74.4457 135.082 74.2795C135.337 74.1112 135.647 74.027 136.012 74.027C136.353 74.027 136.65 74.1016 136.903 74.2507C137.157 74.3999 137.354 74.6129 137.495 74.8899C137.635 75.1648 137.706 75.4929 137.706 75.8743V79H136.344V76.1172C136.346 75.8168 136.27 75.5824 136.114 75.4141C135.958 75.2436 135.744 75.1584 135.472 75.1584C135.288 75.1584 135.126 75.1978 134.986 75.2766C134.847 75.3555 134.739 75.4705 134.66 75.6218C134.583 75.771 134.544 75.951 134.542 76.1619ZM140.588 79.0799C140.215 79.0799 139.877 78.984 139.574 78.7923C139.274 78.5984 139.035 78.3139 138.859 77.9389C138.684 77.5618 138.597 77.0994 138.597 76.5518C138.597 75.9893 138.687 75.5217 138.868 75.1488C139.049 74.7738 139.29 74.4936 139.59 74.3082C139.893 74.1207 140.224 74.027 140.584 74.027C140.859 74.027 141.088 74.0739 141.272 74.1676C141.457 74.2592 141.606 74.3743 141.719 74.5128C141.834 74.6491 141.921 74.7834 141.981 74.9155H142.023V72.4545H143.381V79H142.039V78.2138H141.981C141.917 78.3501 141.827 78.4854 141.709 78.6197C141.594 78.7518 141.444 78.8615 141.259 78.9489C141.076 79.0362 140.852 79.0799 140.588 79.0799ZM141.019 77.9964C141.239 77.9964 141.424 77.9368 141.575 77.8175C141.729 77.696 141.846 77.5266 141.927 77.3093C142.01 77.092 142.051 76.8374 142.051 76.5455C142.051 76.2536 142.011 76 141.93 75.7848C141.849 75.5696 141.732 75.4034 141.578 75.2862C141.425 75.169 141.239 75.1104 141.019 75.1104C140.795 75.1104 140.607 75.1712 140.453 75.2926C140.3 75.4141 140.184 75.5824 140.105 75.7976C140.026 76.0128 139.987 76.2621 139.987 76.5455C139.987 76.831 140.026 77.0835 140.105 77.3029C140.186 77.5202 140.302 77.6907 140.453 77.8143C140.607 77.9357 140.795 77.9964 141.019 77.9964ZM147.945 76.1619V79H146.583V72.4545H147.907V74.957H147.964C148.075 74.6673 148.254 74.4403 148.501 74.2763C148.748 74.1101 149.058 74.027 149.431 74.027C149.772 74.027 150.069 74.1016 150.323 74.2507C150.578 74.3977 150.777 74.6097 150.917 74.8867C151.06 75.1616 151.13 75.4908 151.128 75.8743V79H149.767V76.1172C149.769 75.8146 149.692 75.5792 149.536 75.4109C149.383 75.2425 149.168 75.1584 148.891 75.1584C148.706 75.1584 148.541 75.1978 148.399 75.2766C148.258 75.3555 148.147 75.4705 148.066 75.6218C147.987 75.771 147.947 75.951 147.945 76.1619ZM153.599 79.0927C153.286 79.0927 153.007 79.0384 152.762 78.9297C152.517 78.8189 152.323 78.6559 152.18 78.4407C152.04 78.2234 151.969 77.9528 151.969 77.6289C151.969 77.3562 152.02 77.1271 152.12 76.9418C152.22 76.7564 152.356 76.6072 152.529 76.4943C152.701 76.3814 152.897 76.2962 153.117 76.2386C153.338 76.1811 153.571 76.1406 153.814 76.1172C154.099 76.0874 154.329 76.0597 154.504 76.0341C154.679 76.0064 154.805 75.9659 154.884 75.9126C154.963 75.8594 155.002 75.7805 155.002 75.6761V75.657C155.002 75.4545 154.939 75.2979 154.811 75.1871C154.685 75.0763 154.506 75.021 154.274 75.021C154.029 75.021 153.834 75.0753 153.689 75.1839C153.544 75.2905 153.448 75.4247 153.401 75.5866L152.142 75.4844C152.206 75.1861 152.332 74.9283 152.519 74.7109C152.707 74.4915 152.949 74.3232 153.245 74.206C153.543 74.0866 153.888 74.027 154.28 74.027C154.553 74.027 154.814 74.0589 155.063 74.1229C155.315 74.1868 155.537 74.2859 155.731 74.4201C155.927 74.5543 156.082 74.7269 156.195 74.9379C156.308 75.1467 156.364 75.397 156.364 75.6889V79H155.073V78.3192H155.034C154.956 78.4727 154.85 78.608 154.718 78.7251C154.586 78.8402 154.427 78.9308 154.242 78.9968C154.056 79.0607 153.842 79.0927 153.599 79.0927ZM153.989 78.1531C154.19 78.1531 154.366 78.1136 154.52 78.0348C154.673 77.9538 154.794 77.8452 154.881 77.7088C154.968 77.5724 155.012 77.418 155.012 77.2454V76.7244C154.969 76.7521 154.911 76.7777 154.836 76.8011C154.764 76.8224 154.682 76.8427 154.59 76.8619C154.499 76.8789 154.407 76.8949 154.315 76.9098C154.224 76.9226 154.141 76.9343 154.066 76.945C153.906 76.9684 153.767 77.0057 153.647 77.0568C153.528 77.108 153.435 77.1772 153.369 77.2646C153.303 77.3498 153.27 77.4563 153.27 77.5842C153.27 77.7695 153.337 77.9112 153.472 78.0092C153.608 78.1051 153.781 78.1531 153.989 78.1531ZM161.821 74.0909L160.105 79H158.571L156.855 74.0909H158.293L159.312 77.6033H159.363L160.38 74.0909H161.821ZM164.597 79.0959C164.092 79.0959 163.657 78.9936 163.293 78.7891C162.931 78.5824 162.652 78.2905 162.456 77.9134C162.26 77.5341 162.162 77.0856 162.162 76.5678C162.162 76.0629 162.26 75.6197 162.456 75.2383C162.652 74.8569 162.928 74.5597 163.283 74.3466C163.641 74.1335 164.061 74.027 164.543 74.027C164.866 74.027 165.168 74.0792 165.447 74.1836C165.728 74.2859 165.973 74.4403 166.182 74.647C166.393 74.8537 166.557 75.1136 166.674 75.4268C166.792 75.7379 166.85 76.1023 166.85 76.5199V76.8938H162.705V76.0501H165.569C165.569 75.854 165.526 75.6804 165.441 75.5291C165.355 75.3778 165.237 75.2596 165.086 75.1744C164.937 75.087 164.763 75.0433 164.565 75.0433C164.358 75.0433 164.175 75.0913 164.015 75.1871C163.858 75.2809 163.734 75.4077 163.645 75.5675C163.555 75.7251 163.509 75.9009 163.507 76.0948V76.897C163.507 77.1399 163.552 77.3498 163.641 77.5266C163.733 77.7035 163.862 77.8398 164.028 77.9357C164.194 78.0316 164.391 78.0795 164.619 78.0795C164.771 78.0795 164.909 78.0582 165.035 78.0156C165.161 77.973 165.268 77.9091 165.358 77.8239C165.447 77.7386 165.515 77.6342 165.562 77.5107L166.821 77.5938C166.757 77.8963 166.626 78.1605 166.428 78.3864C166.232 78.6101 165.979 78.7848 165.668 78.9105C165.359 79.0341 165.002 79.0959 164.597 79.0959ZM172.462 74.0909V75.1136H169.432V74.0909H172.462ZM170.125 79V73.7362C170.125 73.3803 170.195 73.0852 170.333 72.8509C170.474 72.6165 170.665 72.4407 170.908 72.3235C171.151 72.2063 171.427 72.1477 171.736 72.1477C171.945 72.1477 172.136 72.1637 172.308 72.1957C172.483 72.2276 172.613 72.2564 172.698 72.282L172.455 73.3047C172.402 73.2876 172.336 73.2717 172.257 73.2567C172.18 73.2418 172.101 73.2344 172.021 73.2344C171.82 73.2344 171.681 73.2812 171.602 73.375C171.523 73.4666 171.484 73.5955 171.484 73.7617V79H170.125ZM176.441 76.9098V74.0909H177.803V79H176.496V78.1083H176.445C176.334 78.396 176.15 78.6271 175.892 78.8018C175.636 78.9766 175.324 79.0639 174.955 79.0639C174.627 79.0639 174.338 78.9893 174.089 78.8402C173.84 78.6911 173.645 78.479 173.504 78.2042C173.366 77.9293 173.295 77.6001 173.293 77.2166V74.0909H174.655V76.9737C174.657 77.2635 174.735 77.4925 174.888 77.6609C175.042 77.8292 175.247 77.9134 175.505 77.9134C175.669 77.9134 175.822 77.8761 175.965 77.8015C176.108 77.7248 176.223 77.6119 176.31 77.4627C176.4 77.3136 176.444 77.1293 176.441 76.9098ZM180.253 76.1619V79H178.892V74.0909H180.19V74.957H180.247C180.356 74.6715 180.538 74.4457 180.794 74.2795C181.049 74.1112 181.359 74.027 181.724 74.027C182.065 74.027 182.362 74.1016 182.615 74.2507C182.869 74.3999 183.066 74.6129 183.207 74.8899C183.347 75.1648 183.418 75.4929 183.418 75.8743V79H182.056V76.1172C182.058 75.8168 181.981 75.5824 181.826 75.4141C181.67 75.2436 181.456 75.1584 181.184 75.1584C181 75.1584 180.838 75.1978 180.698 75.2766C180.559 75.3555 180.451 75.4705 180.372 75.6218C180.295 75.771 180.256 75.951 180.253 76.1619Z" fill="white"/>
</svg>
